<svg fill="#22d3ee" viewBox="0 0 512.005 512.005" xmlns="http://www.w3.org/2000/svg">
<path d="M502.549,5.745c-4.676-3.806-10.402-5.743-16.154-5.743c-4.608,0-9.225,1.237-13.346,3.755l-460.8,281.6c-9.788,5.982-14.396,17.741-11.29,28.774c3.106,11.042,13.175,18.671,24.644,18.671h153.6v166.4c0,5.726,3.789,10.752,9.284,12.297c1.169,0.35,2.355,0.503,3.516,0.503c4.335,0,8.491-2.227,10.871-6.05l81.135-130.526l62.942,31.471c3.601,1.801,7.518,2.705,11.452,2.705c3.234,0,6.477-0.614,9.54-1.843c6.801-2.731,12.1-8.243,14.566-15.147l128-358.4C514.163,23.998,510.972,12.589,502.549,5.745z M186.705,307.202H25.604L439.863,54.044L186.705,307.202z M204.804,454.377V335.823l56.218,28.109L204.804,454.377z M358.404,384.002L216.87,313.235L476.343,53.762L358.404,384.002z"/>
</svg>
